<?xml version="1.0" standalone="no"?><!DOCTYPE svg PUBLIC "-//W3C//DTD SVG 1.1//EN" "http://www.w3.org/Graphics/SVG/1.1/DTD/svg11.dtd"><svg t="1600276729763" class="icon" viewBox="0 0 1024 1024" version="1.1" xmlns="http://www.w3.org/2000/svg" p-id="7618" xmlns:xlink="http://www.w3.org/1999/xlink" width="32" height="32"><defs><style type="text/css"></style></defs><path d="M806.23 211.59l37.533 103.118C884.125 334.035 912 375.262 912 423v75.302a80 80 0 0 1-28.355 61.097C869.215 571.597 862 585.797 862 602s7.215 30.403 21.645 42.6A80 80 0 0 1 912 705.699V781c0 66.274-53.726 120-120 120H232c-66.274 0-120-53.726-120-120v-75.302a80 80 0 0 1 28.355-61.097C154.785 632.403 162 618.203 162 602s-7.215-30.403-21.645-42.6A80 80 0 0 1 112 498.301V423l0.015-1.946c-2.837-53.849 26.66-104.191 76.44-122.31L649.521 130.93c62.107-22.605 132.268 13.508 156.71 80.66zM232.143 367c-30.743 0-55.738 24.783-55.999 55.525-0.035 4.114-0.083 8.008-0.143 11.681v50.295a40 40 0 0 0 12.958 29.474C213.653 536.632 226 565.974 226 602s-12.347 65.368-37.042 88.024A40 40 0 0 0 176 719.5v61.495c0 30.927 25.072 56 56 56l559.811 0.005c30.83 0 55.862-24.92 56-55.75 0.033-7.295 0.096-13.78 0.189-19.455v-42.295a40 40 0 0 0-12.958-29.475C810.347 667.368 798 638.026 798 602s12.347-65.368 37.042-88.025A40 40 0 0 0 848 484.5v-61.495c0-30.927-25.072-56-56-56L232.142 367zM384 500c17.673 0 32 14.327 32 32v140c0 17.673-14.327 32-32 32-17.673 0-32-14.327-32-32V532c0-17.673 14.327-32 32-32z m294.368-311.683l-0.756 0.267L363.256 303h407.6l-29.112-79.987c-10.151-27.891-38.395-43.277-63.376-34.695z" fill="#ffffff" p-id="7619"></path></svg>