<?xml version="1.0" standalone="no"?><!DOCTYPE svg PUBLIC "-//W3C//DTD SVG 1.1//EN" "http://www.w3.org/Graphics/SVG/1.1/DTD/svg11.dtd"><svg t="1600276749035" class="icon" viewBox="0 0 1024 1024" version="1.1" xmlns="http://www.w3.org/2000/svg" p-id="8338" xmlns:xlink="http://www.w3.org/1999/xlink" width="32" height="32"><defs><style type="text/css"></style></defs><path d="M143 613c17.673 0 32 14.327 32 32v139c0 34.993 28.084 63.426 62.942 63.991L239 848h140c17.673 0 32 14.327 32 32 0 17.496-14.042 31.713-31.47 31.996L379 912H239c-70.692 0-128-57.308-128-128V645c0-17.496 14.042-31.713 31.47-31.996L143 613z m736 0c17.673 0 32 14.327 32 32v139c0 70.692-57.308 128-128 128H643c-17.673 0-32-14.327-32-32 0-17.496 14.042-31.713 31.47-31.996L643 848h140c34.993 0 63.426-28.084 63.991-62.942L847 784V645c0-17.496 14.042-31.713 31.47-31.996L879 613zM379 112c17.673 0 32 14.327 32 32 0 17.673-14.327 32-32 32H239c-34.993 0-63.426 28.084-63.991 62.942L175 240v140c0 17.496-14.042 31.713-31.47 31.996L143 412c-17.673 0-32-14.327-32-32V240c0-70.692 57.308-128 128-128h140z m265 64c-17.673 0-32-14.327-32-32 0-17.496 14.042-31.713 31.47-31.996L644 112h139c70.692 0 128 57.308 128 128v140c0 17.496-14.042 31.713-31.47 31.996L879 412c-17.673 0-32-14.327-32-32V240c0-35.346-28.654-64-64-64l-122-0.001-17 0.001z" fill="#ffffff" p-id="8339"></path></svg>