<?xml version="1.0" standalone="no"?><!DOCTYPE svg PUBLIC "-//W3C//DTD SVG 1.1//EN" "http://www.w3.org/Graphics/SVG/1.1/DTD/svg11.dtd"><svg t="1600276638870" class="icon" viewBox="0 0 1024 1024" version="1.1" xmlns="http://www.w3.org/2000/svg" p-id="5468" xmlns:xlink="http://www.w3.org/1999/xlink" width="32" height="32"><defs><style type="text/css"></style></defs><path d="M650.194 137.74A87.977 87.977 0 0 1 676 199.984v624.03C676 872.608 636.6 912 588 912a88.008 88.008 0 0 1-62.257-25.801l-160.029-160.16a48 48 0 0 0-33.955-14.073l-61.759 0.001c-70.692 0-128-57.297-128-127.978V440.015c0-70.68 57.308-127.978 128-127.978h61.755a48 48 0 0 0 33.955-14.073L525.743 137.8c34.35-34.377 90.068-34.405 124.451-0.062z m-79.173 45.297L406.299 347.886a96 96 0 0 1-67.907 28.144H270c-35.346 0-64 28.648-64 63.987v143.97c0 35.339 28.654 63.987 64 63.987l68.394-0.001a96 96 0 0 1 67.91 28.144L571.02 840.964A24.003 24.003 0 0 0 588 848c13.255 0 24-10.743 24-23.995v-624.01a23.992 23.992 0 0 0-6.72-16.651l-0.318-0.325-0.292-0.286c-9.398-9.078-24.378-8.975-33.65 0.304z m231.563 501.301l0.378 0.371 67.962 67.896 0.022 0.022c12.487 12.5 12.477 32.755-0.022 45.242-12.39 12.378-32.388 12.501-44.93 0.371l-0.378-0.371-67.962-67.896a32.98 32.98 0 0 1-0.022-0.022c-12.487-12.5-12.477-32.755 0.022-45.242 12.39-12.377 32.388-12.501 44.93-0.37zM862 481c17.673 0 32 14.327 32 32 0 17.673-14.327 32-32 32h-69c-17.673 0-32-14.327-32-32 0-17.673 14.327-32 32-32h69z m8.924-260.29c12.5 12.486 12.51 32.742 0.022 45.241l-0.022 0.022-67.962 67.896c-12.515 12.503-32.793 12.503-45.308 0-12.5-12.487-12.51-32.743-0.022-45.242l0.022-0.022 67.962-67.896c12.515-12.502 32.793-12.502 45.308 0z" fill="#ffffff" p-id="5469"></path></svg>