<?xml version="1.0" standalone="no"?><!DOCTYPE svg PUBLIC "-//W3C//DTD SVG 1.1//EN" "http://www.w3.org/Graphics/SVG/1.1/DTD/svg11.dtd"><svg t="1600276797504" class="icon" viewBox="0 0 1024 1024" version="1.1" xmlns="http://www.w3.org/2000/svg" p-id="10309" xmlns:xlink="http://www.w3.org/1999/xlink" width="32" height="32"><defs><style type="text/css"></style></defs><path d="M824.044 199.956c13.275 13.274 13.275 34.796 0 48.07L559.07 513.001l262.971 262.973c13.275 13.274 13.275 34.796 0 48.07-13.274 13.275-34.796 13.275-48.07 0L510.999 561.072 250.026 822.047c-13.274 13.274-34.796 13.274-48.07 0-13.275-13.274-13.275-34.796 0-48.07L462.929 513 199.956 250.026c-13.275-13.274-13.275-34.796 0-48.07 13.274-13.275 34.796-13.275 48.07 0L511 464.93l264.975-264.974c13.274-13.275 34.796-13.275 48.07 0z" fill="#ffffff" p-id="10310"></path></svg>