<?xml version="1.0" standalone="no"?><!DOCTYPE svg PUBLIC "-//W3C//DTD SVG 1.1//EN" "http://www.w3.org/Graphics/SVG/1.1/DTD/svg11.dtd"><svg t="1600276554326" class="icon" viewBox="0 0 1024 1024" version="1.1" xmlns="http://www.w3.org/2000/svg" p-id="2523" xmlns:xlink="http://www.w3.org/1999/xlink" width="32" height="32"><defs><style type="text/css"></style></defs><path d="M512 64C264.576 64 64 264.576 64 512s200.576 448 448 448 448-200.576 448-448S759.424 64 512 64z m0 64c212.077 0 384 171.923 384 384S724.077 896 512 896 128 724.077 128 512s171.923-384 384-384z m-37.224 165.552c-12.397-12.595-32.656-12.755-45.25-0.357-12.468 12.273-12.75 32.254-0.725 44.873l0.368 0.38L595.38 507.32a8 8 0 0 1-0.03 11.255l-166.055 166.85c-12.342 12.401-12.418 32.384-0.266 44.88l0.372 0.375c12.4 12.343 32.38 12.42 44.874 0.266l0.377-0.372 182.812-183.688c18.564-18.653 18.648-48.775 0.188-67.53L474.776 293.551z" fill="#ffffff" p-id="2524"></path></svg>