<?xml version="1.0" standalone="no"?><!DOCTYPE svg PUBLIC "-//W3C//DTD SVG 1.1//EN" "http://www.w3.org/Graphics/SVG/1.1/DTD/svg11.dtd"><svg t="1600276790021" class="icon" viewBox="0 0 1024 1024" version="1.1" xmlns="http://www.w3.org/2000/svg" p-id="9959" xmlns:xlink="http://www.w3.org/1999/xlink" width="32" height="32"><defs><style type="text/css"></style></defs><path d="M824 158c70.692 0 128 57.308 128 128v452c0 70.692-57.308 128-128 128H200c-70.692 0-128-57.308-128-128V286c0-70.692 57.308-128 128-128h624zM136 366.13V738c0 34.993 28.084 63.426 62.942 63.991L200 802h624c34.993 0 63.426-28.084 63.991-62.942L888 738V366.711l-299.105 173.89c-46.757 27.183-104.395 27.455-151.37 0.816l-1.42-0.816L136 366.13zM824 222H200c-34.993 0-63.426 28.084-63.991 62.942L136 286v6.1l332.271 193.172a88 88 0 0 0 87.636 0.472l0.822-0.472L888 292.68V286c0-35.346-28.654-64-64-64z" fill="#ffffff" p-id="9960"></path></svg>