<?xml version="1.0" standalone="no"?><!DOCTYPE svg PUBLIC "-//W3C//DTD SVG 1.1//EN" "http://www.w3.org/Graphics/SVG/1.1/DTD/svg11.dtd"><svg t="1600276459709" class="icon" viewBox="0 0 1024 1024" version="1.1" xmlns="http://www.w3.org/2000/svg" p-id="1682" width="32" height="32" xmlns:xlink="http://www.w3.org/1999/xlink"><defs><style type="text/css"></style></defs><path d="M512 961c247.424 0 448-200.576 448-448S759.424 65 512 65 64 265.576 64 513s200.576 448 448 448z m0-64c-212.077 0-384-171.923-384-384s171.923-384 384-384 384 171.923 384 384-171.923 384-384 384z m36-166c12.753 13.043 32.937 13.203 45 1 12.906-12.468 13.187-32.449 1-45L428.51 517.64a8 8 0 0 1 0.05-11.232L594 340c12.012-12.826 12.088-32.809 0-45v-1c-12.744-12.023-32.65-12.1-45 0L366.32 478.371c-18.476 18.648-18.545 48.679-0.155 67.411L548 731z" fill="#ffffff" p-id="1683"></path></svg>