<?xml version="1.0" standalone="no"?><!DOCTYPE svg PUBLIC "-//W3C//DTD SVG 1.1//EN" "http://www.w3.org/Graphics/SVG/1.1/DTD/svg11.dtd"><svg t="1600276733972" class="icon" viewBox="0 0 1024 1024" version="1.1" xmlns="http://www.w3.org/2000/svg" p-id="7795" xmlns:xlink="http://www.w3.org/1999/xlink" width="32" height="32"><defs><style type="text/css"></style></defs><path d="M579 140l347 164c29.528 13.72 42.39 49.464 28 79a57.612 57.612 0 0 1-28 29l-110 51.987v263.154c0 49.662-28.725 94.841-73.696 115.91C665.536 879.017 588.768 897 512 897s-153.536-17.983-230.304-53.95C236.726 821.983 208 776.804 208 727.142v-263.02L98 412c-29.404-14.063-42.152-49.29-28.424-79.098L70 332c5.774-12.36 15.808-22.384 28-28l344-163c42.9-21.078 93.153-21.172 137-1z m173 359.39l-168.598 70.988a184 184 0 0 1-142.804 0L272 499.389v227.752a64 64 0 0 0 36.848 57.955C377.325 817.178 444.868 833 512 833c67.131 0 134.675-15.822 203.152-47.904A64 64 0 0 0 752 727.141V499.39zM892 475c17.673 0 32 14.327 32 32v96c0 17.673-14.327 32-32 32-17.673 0-32-14.327-32-32v-96c0-17.673 14.327-32 32-32zM553.311 201.664c-22.914-10.295-64.372-10.246-86.311 0.315h-1L167.782 343.4l-0.301 0.146c-7.769 3.881-11.039 13.283-7.3 21.166a16 16 0 0 0 7.709 7.652L466 511.017l0.677 0.314c22.55 10.254 64.049 10.3 86.323-0.314h1l301.668-138.621 0.299-0.141c7.817-3.786 11.202-13.15 7.559-21.078a16 16 0 0 0-7.75-7.808L554 201.979z" fill="#ffffff" p-id="7796"></path></svg>