<?xml version="1.0" standalone="no"?><!DOCTYPE svg PUBLIC "-//W3C//DTD SVG 1.1//EN" "http://www.w3.org/Graphics/SVG/1.1/DTD/svg11.dtd"><svg t="1600276718299" class="icon" viewBox="0 0 1024 1024" version="1.1" xmlns="http://www.w3.org/2000/svg" p-id="7087" xmlns:xlink="http://www.w3.org/1999/xlink" width="32" height="32"><defs><style type="text/css"></style></defs><path d="M511 65c206.554 0 374 167.44 374 373.987C885 645.535 634.967 961 511 961c-123.967 0-374-315.465-374-522.013C137 232.44 304.446 65 511 65z m0 64c-171.209 0-310 138.787-310 309.987 0 80.144 50.132 195.945 127.832 300.222 36.087 48.43 75.294 90.31 111.49 119.358 17.185 13.792 33.106 24.208 46.843 30.84l1.152 0.55C498.779 894.893 506.643 897 511 897c4.515 0 12.798-2.263 23.835-7.592 13.737-6.633 29.658-17.049 46.844-30.84 36.195-29.048 75.402-70.929 111.49-119.359C770.868 634.932 821 519.131 821 438.987 821 267.787 682.209 129 511 129z m0 164c72.902 0 132 59.098 132 132s-59.098 132-132 132-132-59.098-132-132 59.098-132 132-132z m0 64c-37.555 0-68 30.445-68 68s30.445 68 68 68 68-30.445 68-68-30.445-68-68-68z" fill="#ffffff" p-id="7088"></path></svg>