<?xml version="1.0" standalone="no"?><!DOCTYPE svg PUBLIC "-//W3C//DTD SVG 1.1//EN" "http://www.w3.org/Graphics/SVG/1.1/DTD/svg11.dtd"><svg t="1600276628019" class="icon" viewBox="0 0 1024 1024" version="1.1" xmlns="http://www.w3.org/2000/svg" p-id="5114" xmlns:xlink="http://www.w3.org/1999/xlink" width="32" height="32"><defs><style type="text/css"></style></defs><path d="M511 65c247.424 0 448 200.576 448 448S758.424 961 511 961 63 760.424 63 513 263.576 65 511 65z m0 64c-212.077 0-384 171.923-384 384s171.923 384 384 384 384-171.923 384-384-171.923-384-384-384z m187 301c10.9 14.072 8.666 33.647-4.595 44.669L693 475 486.199 635.376c-20.949 16.246-51.1 12.434-67.346-8.515l-0.207-0.268L341 525c-10.182-14.44-7.395-34.499 7-45 13.658-10.698 33.467-8.073 44 6h1l62.114 82.51a8 8 0 0 0 11.3 1.505L653 425c14.366-11.116 34.466-8.569 45 5z" fill="#ffffff" p-id="5115"></path></svg>