<?xml version="1.0" standalone="no"?><!DOCTYPE svg PUBLIC "-//W3C//DTD SVG 1.1//EN" "http://www.w3.org/Graphics/SVG/1.1/DTD/svg11.dtd"><svg t="1600276583717" class="icon" viewBox="0 0 1024 1024" version="1.1" xmlns="http://www.w3.org/2000/svg" p-id="3565" xmlns:xlink="http://www.w3.org/1999/xlink" width="32" height="32"><defs><style type="text/css"></style></defs><path d="M512 111c17.673 0 32 14.327 32 32l0.002 25.607C713.626 178.938 848 319.777 848 492v285h16c17.673 0 32 14.327 32 32 0 17.673-14.327 32-32 32H584c0 39.765-32.235 72-72 72s-72-32.235-72-72H160c-17.673 0-32-14.327-32-32 0-17.673 14.327-32 32-32h16V492c0-172.223 134.374-313.062 303.999-323.393L480 143c0-17.673 14.327-32 32-32z m12 121h-24c-142.158 0-257.67 114.09-259.965 255.7L240 492v284h544V492c0-142.158-114.09-257.67-255.7-259.965L524 232zM352 461c17.673 0 32 14.327 32 32v144c0 17.673-14.327 32-32 32-17.673 0-32-14.327-32-32V493c0-17.673 14.327-32 32-32z" fill="#ffffff" p-id="3566"></path></svg>