<?xml version="1.0" standalone="no"?><!DOCTYPE svg PUBLIC "-//W3C//DTD SVG 1.1//EN" "http://www.w3.org/Graphics/SVG/1.1/DTD/svg11.dtd"><svg t="1600276774238" class="icon" viewBox="0 0 1024 1024" version="1.1" xmlns="http://www.w3.org/2000/svg" p-id="9239" xmlns:xlink="http://www.w3.org/1999/xlink" width="32" height="32"><defs><style type="text/css"></style></defs><path d="M538 118.008c9.99 5.575 18.422 14.021 24 24.03l93.642 182.877a32 32 0 0 0 23.287 16.99L882 375.33c30.534 5.125 51.237 33.942 46 64.08-1.612 11.941-7.026 22.584-15 31.04L768.322 616.235a32 32 0 0 0-8.93 27.303L790 846.919c5.143 31.085-15.82 59.712-46 64.08-11.89 2.11-23.668 0.242-34-5.007L526.44 813.17a32 32 0 0 0-28.88 0L314 905.992c-27.548 13.933-61.207 2.809-75-25.03-5.358-10.237-7.224-22.034-5-34.043l30.608-203.38a32 32 0 0 0-8.93-27.303L111 470.448c-21.545-22.164-21.384-57.667 1-79.099 7.85-8.578 18.475-14 30-16.02l203.071-33.423a32 32 0 0 0 23.287-16.99L462 142.037c14.395-27.165 48.153-37.983 76-24.03z m69.225 250.576l-87.14-169.697a8 8 0 0 0-14.22-0.027l-88.052 169.912a64 64 0 0 1-46.594 33.73l-187.854 30.415a8 8 0 0 0-4.398 13.533l134.326 135.295a64 64 0 0 1 17.853 54.731L302.333 825.6a8 8 0 0 0 11.503 8.352l170.338-85.676a64 64 0 0 1 57.624 0.054l169.347 85.58a8 8 0 0 0 11.517-8.345l-28.808-189.089a64 64 0 0 1 17.853-54.73L846.033 446.45a8 8 0 0 0-4.398-13.533l-187.706-30.39a64 64 0 0 1-46.704-33.943z" fill="#ffffff" p-id="9240"></path></svg>