<?xml version="1.0" standalone="no"?><!DOCTYPE svg PUBLIC "-//W3C//DTD SVG 1.1//EN" "http://www.w3.org/Graphics/SVG/1.1/DTD/svg11.dtd"><svg t="1600276536706" class="icon" viewBox="0 0 1024 1024" version="1.1" xmlns="http://www.w3.org/2000/svg" p-id="2139" xmlns:xlink="http://www.w3.org/1999/xlink" width="32" height="32"><defs><style type="text/css"></style></defs><path d="M64 512c0 247.424 200.576 448 448 448s448-200.576 448-448S759.424 64 512 64 64 264.576 64 512z m64 0c0-212.077 171.923-384 384-384s384 171.923 384 384-171.923 384-384 384-384-171.923-384-384z m166 50c-13.043 12.44-13.203 32.773-1 45 12.468 12.928 32.449 13.21 45 1l169.327-167.392a8 8 0 0 1 11.297 0.05L685 608c12.826 12.034 32.809 12.111 45 0h1c12.023-12.905 12.1-32.959 0-45v-1L546.786 378.63c-18.697-18.61-48.91-18.645-67.648-0.077L294 562z" fill="#ffffff" p-id="2140"></path></svg>