<?xml version="1.0" standalone="no"?><!DOCTYPE svg PUBLIC "-//W3C//DTD SVG 1.1//EN" "http://www.w3.org/Graphics/SVG/1.1/DTD/svg11.dtd"><svg t="1600276767359" class="icon" viewBox="0 0 1024 1024" version="1.1" xmlns="http://www.w3.org/2000/svg" p-id="8877" xmlns:xlink="http://www.w3.org/1999/xlink" width="32" height="32"><defs><style type="text/css"></style></defs><path d="M537 139c165.23 0 302.183 121.067 326.991 279.332C922.626 466.753 960 540.012 960 622c0 145.803-118.197 264-264 264H348c-156.942-0.542-284-127.933-284-285 0-115.73 68.98-215.348 168.067-259.984C282.35 222.296 399.947 139 537 139z m0 64c-108.247 0-204.502 64.996-246.001 162.976l-6.113 14.433a24 24 0 0 1-12.242 12.522l-14.291 6.438C179.66 434.817 128 513.188 128 601c0 120.513 96.481 218.546 216.474 220.956l3.643 0.044H696c110.457 0 200-89.543 200-200 0-60.52-26.962-116.498-72.761-154.32l-11.698-9.66a24 24 0 0 1-8.428-14.79l-2.35-14.987C780.558 299.34 668.927 203 537 203z m93.245 247.627c12.497 12.497 12.497 32.758 0 45.255l-65.055 65.054 65.055 65.054c12.497 12.497 12.497 32.758 0 45.255s-32.758 12.497-45.255 0l-65.055-65.054-65.053 65.054c-12.497 12.497-32.758 12.497-45.255 0-12.496-12.497-12.496-32.758 0-45.255l65.053-65.054-65.053-65.054c-12.496-12.497-12.496-32.758 0-45.255 12.497-12.496 32.758-12.496 45.255 0l65.053 65.054 65.055-65.054c12.497-12.496 32.758-12.496 45.255 0z" fill="#ffffff" p-id="8878"></path></svg>