<?xml version="1.0" standalone="no"?><!DOCTYPE svg PUBLIC "-//W3C//DTD SVG 1.1//EN" "http://www.w3.org/Graphics/SVG/1.1/DTD/svg11.dtd"><svg t="1600276599675" class="icon" viewBox="0 0 1024 1024" version="1.1" xmlns="http://www.w3.org/2000/svg" p-id="4052" xmlns:xlink="http://www.w3.org/1999/xlink" width="32" height="32"><defs><style type="text/css"></style></defs><path d="M512 64c247.424 0 448 200.576 448 448S759.424 960 512 960 64 759.424 64 512 264.576 64 512 64z m0 64c-212.077 0-384 171.923-384 384s171.923 384 384 384 384-171.923 384-384-171.923-384-384-384z m31.985 224.033c0-17.692-14.323-32.033-31.992-32.033-17.67 0-31.993 14.341-31.993 32.033v147.374a64 64 0 0 0 18.888 45.398l108.583 107.898c12.54 12.462 32.797 12.386 45.244-0.171 12.447-12.557 12.37-32.839-0.171-45.3l-99.114-98.49a32 32 0 0 1-9.445-22.7v-134.01z" fill="#ffffff" p-id="4053"></path></svg>