<?xml version="1.0" standalone="no"?><!DOCTYPE svg PUBLIC "-//W3C//DTD SVG 1.1//EN" "http://www.w3.org/Graphics/SVG/1.1/DTD/svg11.dtd"><svg t="1600276588398" class="icon" viewBox="0 0 1024 1024" version="1.1" xmlns="http://www.w3.org/2000/svg" p-id="3738" xmlns:xlink="http://www.w3.org/1999/xlink" width="32" height="32"><defs><style type="text/css"></style></defs><path d="M511 65c247.424 0 448 200.576 448 448S758.424 961 511 961 63 760.424 63 513 263.576 65 511 65z m0 64c-212.077 0-384 171.923-384 384s171.923 384 384 384 384-171.923 384-384-171.923-384-384-384zM408 385c17.673 0 32 14.327 32 32v192c0 17.673-14.327 32-32 32-17.673 0-32-14.327-32-32V417c0-17.673 14.327-32 32-32z m206 0c17.673 0 32 14.327 32 32v192c0 17.673-14.327 32-32 32-17.673 0-32-14.327-32-32V417c0-17.673 14.327-32 32-32z" fill="#ffffff" p-id="3739"></path></svg>