<?xml version="1.0" standalone="no"?><!DOCTYPE svg PUBLIC "-//W3C//DTD SVG 1.1//EN" "http://www.w3.org/Graphics/SVG/1.1/DTD/svg11.dtd"><svg t="1600276809092" class="icon" viewBox="0 0 1024 1024" version="1.1" xmlns="http://www.w3.org/2000/svg" p-id="10840" xmlns:xlink="http://www.w3.org/1999/xlink" width="32" height="32"><defs><style type="text/css"></style></defs><path d="M252 444c37.555 0 68 30.445 68 68 0 37.18-29.839 67.39-66.875 67.99L252 580c-37.555 0-68-30.445-68-68 0-37.18 29.839-67.39 66.875-67.99L252 444z m520 0c37.555 0 68 30.445 68 68 0 37.18-29.839 67.39-66.875 67.99L772 580c-37.555 0-68-30.445-68-68 0-37.18 29.839-67.39 66.875-67.99L772 444z m-260 5c-34.794 0-63 28.206-63 63s28.206 63 63 63 63-28.206 63-63-28.206-63-63-63z" fill="#ffffff" p-id="10841"></path></svg>