<?xml version="1.0" standalone="no"?><!DOCTYPE svg PUBLIC "-//W3C//DTD SVG 1.1//EN" "http://www.w3.org/Graphics/SVG/1.1/DTD/svg11.dtd"><svg t="1600276824431" class="icon" viewBox="0 0 1024 1024" version="1.1" xmlns="http://www.w3.org/2000/svg" p-id="11548" xmlns:xlink="http://www.w3.org/1999/xlink" width="32" height="32"><defs><style type="text/css"></style></defs><path d="M487.947 191.383c95.178-95.177 249.492-95.177 344.67 0 94.226 94.227 95.168 246.412 2.826 341.797l-2.826 2.873-296.564 296.564c-95.178 95.177-249.492 95.177-344.67 0-95.177-95.178-95.177-249.492 0-344.67l99.473-99.473c12.497-12.497 32.758-12.497 45.255 0s12.497 32.758 0 45.255l-99.473 99.473c-70.184 70.184-70.184 183.975 0 254.16 69.483 69.482 181.705 70.177 252.042 2.084l2.118-2.084 296.564-296.564c70.184-70.184 70.184-183.975 0-254.16-69.483-69.482-181.705-70.177-252.042-2.084l-2.118 2.084-9.563 9.563c-12.497 12.497-32.758 12.497-45.255 0-12.372-12.372-12.495-32.354-0.37-44.878l0.37-0.377 9.563-9.563zM298.053 381.026c56.035-56.035 146.886-56.035 202.92 0 55.475 55.475 56.03 145.072 1.665 201.23l-1.664 1.69-79.68 79.681c-12.498 12.497-32.759 12.497-45.256 0-12.371-12.371-12.495-32.353-0.37-44.877l0.37-0.377 79.68-79.681c31.042-31.041 31.042-81.37 0-112.41-30.73-30.732-80.364-31.04-111.473-0.923l-0.937 0.922-79.68 79.68c-12.497 12.497-32.759 12.497-45.255 0C206 493.59 205.877 473.609 218 461.085l0.372-0.377 79.68-79.68z" fill="#ffffff" p-id="11549"></path></svg>