<?xml version="1.0" standalone="no"?><!DOCTYPE svg PUBLIC "-//W3C//DTD SVG 1.1//EN" "http://www.w3.org/Graphics/SVG/1.1/DTD/svg11.dtd"><svg t="1600276771066" class="icon" viewBox="0 0 1024 1024" version="1.1" xmlns="http://www.w3.org/2000/svg" p-id="9058" xmlns:xlink="http://www.w3.org/1999/xlink" width="32" height="32"><defs><style type="text/css"></style></defs><path d="M513 141c134.821 0 275.646 98.096 422.475 294.289 33.693 45.02 34.03 106.7 1.01 152.053l-1.01 1.37-4.403 5.856C785.83 786.856 646.473 883 513 883c-134.821 0-275.646-98.096-422.475-294.289-33.693-45.02-34.03-106.7-1.01-152.053l1.01-1.37 4.403-5.856C240.17 237.144 379.527 141 513 141z m0 64c-108.178 0-230.18 83.429-362.979 257.706l-3.941 5.195-4.318 5.743c-17.016 22.738-17.016 53.974 0 76.712C277.722 732.036 402.559 819 513 819c108.178 0 230.18-83.429 362.979-257.706l3.94-5.196 4.32-5.743 0.505-0.684c16.341-22.448 16.341-52.894 0-75.342l-0.506-0.685C748.278 291.964 623.441 205 513 205z m0 175c72.902 0 132 59.098 132 132s-59.098 132-132 132-132-59.098-132-132 59.098-132 132-132z m0 64c-37.555 0-68 30.445-68 68s30.445 68 68 68 68-30.445 68-68-30.445-68-68-68z" fill="#ffffff" p-id="9059"></path></svg>