<?xml version="1.0" standalone="no"?><!DOCTYPE svg PUBLIC "-//W3C//DTD SVG 1.1//EN" "http://www.w3.org/Graphics/SVG/1.1/DTD/svg11.dtd"><svg t="1600276652000" class="icon" viewBox="0 0 1024 1024" version="1.1" xmlns="http://www.w3.org/2000/svg" p-id="5999" xmlns:xlink="http://www.w3.org/1999/xlink" width="32" height="32"><defs><style type="text/css"></style></defs><path d="M251.435 118.394c-17.856 3.53-34.473 11.82-50.833 24.158-11.6 8.748-22.345 18.846-35.366 32.598l-2.212 2.35c-3.776 4.042-14.127 15.29-18.39 19.863l-1.076 1.147 0.52-0.528c-38.061 38.06-37.108 113.4-3.759 201.971 34.667 92.073 101.93 192.75 195.467 286.285 93.685 93.685 193.816 160.876 285.273 195.451 88.012 33.273 163.137 34.22 202.425-3.197l2.112-2.004a921.17 921.17 0 0 1 3.954-3.712l10.968-10.192c17.346-16.148 25.708-24.47 34.934-35.308 14.369-16.882 24.115-33.341 28.894-51.312 11.787-44.333-9.139-87.108-62.215-129.57-50.415-40.33-89.963-57.671-126.568-54.024-17.824 1.775-35.712 10.128-54.425 24.174l-0.754 0.568c-18.61 14.117-43.33 17.006-64.62 7.595-47.074-20.81-86.63-47.338-118.87-79.578-32.194-32.195-58.693-71.685-79.49-118.675a64 64 0 0 1 7.372-64.367l0.426-0.56c11.705-15.215 19.367-29.494 22.585-43.615 9.038-39.646-7.677-82.417-52.158-138.019-39.53-49.412-81.102-70.015-124.194-61.499z m35.334 66.53c11.514 5.706 24.547 17.028 38.884 34.95l1.301 1.633c17.624 22.224 28.879 40.463 34.65 55.23 4.512 11.547 5.383 19.935 3.784 26.952-0.844 3.702-4.235 10.062-10.552 18.343l-0.36 0.471c-28.59 37.162-34.573 86.98-15.596 129.854 23.907 54.015 54.825 100.092 92.76 138.027 37.987 37.987 84.138 68.938 138.248 92.858 42.153 18.635 91.032 13.157 127.994-14.254l1.741-1.308 1.002-0.745c9.61-7.074 16.952-10.45 21.282-10.88 7.067-0.705 15.83 0.963 27.34 6.01 14.45 6.335 31.944 17.538 52.903 34.306l1.42 1.142c18.745 15.193 30.404 28.623 36.027 40.116 4.066 8.311 4.744 14.944 2.898 21.89-1.942 7.303-6.884 15.723-15.29 25.697l-1.49 1.744c-6.767 7.834-13.943 14.936-28.492 28.488l-11.802 10.971a864.6 864.6 0 0 0-6.075 5.728c-6.717 6.397-21.122 10.67-42.375 10.402-25.572-0.322-57.617-7.242-93.28-20.724-82.579-31.22-175.137-93.329-262.65-180.842-87.327-87.326-149.503-180.387-180.826-263.581-13.485-35.813-20.418-67.966-20.74-93.444-0.262-20.693 3.817-34.463 9.657-40.518l0.523-0.527 1.816-1.935c4.902-5.26 15.944-17.263 18.758-20.256l1.382-1.464c22.426-23.663 38.027-35.27 52.233-38.078 7.277-1.438 14.46-0.452 22.925 3.743z" fill="#ffffff" p-id="6000"></path></svg>