<?xml version="1.0" standalone="no"?><!DOCTYPE svg PUBLIC "-//W3C//DTD SVG 1.1//EN" "http://www.w3.org/Graphics/SVG/1.1/DTD/svg11.dtd"><svg t="1600276713767" class="icon" viewBox="0 0 1024 1024" version="1.1" xmlns="http://www.w3.org/2000/svg" p-id="6910" xmlns:xlink="http://www.w3.org/1999/xlink" width="32" height="32"><defs><style type="text/css"></style></defs><path d="M753.265 105.505c12.57 12.547 12.696 32.812 0.377 45.513l-0.377 0.382-72.738 72.6H816c70.692 0 128 57.308 128 128v448c0 70.692-57.308 128-128 128H208c-70.692 0-128-57.308-128-128V352c0-70.692 57.308-128 128-128h135.685l-72.737-72.6c-12.698-12.673-12.698-33.221 0-45.895 12.697-12.673 33.284-12.673 45.982 0L435.65 224h152.912l118.72-118.495c12.698-12.673 33.285-12.673 45.983 0zM816 288H208c-34.993 0-63.426 28.084-63.991 62.942L144 352v448c0 34.993 28.084 63.426 62.942 63.991L208 864h608c34.993 0 63.426-28.084 63.991-62.942L880 800V352c0-35.346-28.654-64-64-64zM600 546c19.882 0 36 16.118 36 36s-16.118 36-36 36H424c-19.882 0-36-16.118-36-36s16.118-36 36-36h176z" fill="#ffffff" p-id="6911"></path></svg>