<?xml version="1.0" standalone="no"?><!DOCTYPE svg PUBLIC "-//W3C//DTD SVG 1.1//EN" "http://www.w3.org/Graphics/SVG/1.1/DTD/svg11.dtd"><svg t="1600276666107" class="icon" viewBox="0 0 1024 1024" version="1.1" xmlns="http://www.w3.org/2000/svg" p-id="6345" xmlns:xlink="http://www.w3.org/1999/xlink" width="32" height="32"><defs><style type="text/css"></style></defs><path d="M511 65c143.042 0 257 115.958 257 259 0 72.553-32.875 138.255-98.624 197.104-6.584 5.893-7.144 16.008-1.25 22.592a16 16 0 0 0 6.744 4.469l125.96 43.076C849.38 607.844 882 653.476 882 704.785V833c0 70.692-57.308 128-128 128H268c-70.692 0-128-57.308-128-128V704.785c0-51.309 32.621-96.941 81.17-113.544l125.96-43.076c8.361-2.86 12.821-11.956 9.962-20.317a16 16 0 0 0-4.468-6.744C286.874 462.254 254 396.554 254 324c0-143.042 113.958-259 257-259z m0 64c-107.16 0-193 86.766-193 195 0 52.71 23.962 101.127 75.73 147.996l2.163 1.95a80 80 0 0 1 21.756 33.193c14.296 41.806-8.004 87.286-49.81 101.583l-125.96 43.076C219.223 659.546 204 680.841 204 704.785V833c0 35.346 28.654 64 64 64h486c35.346 0 64-28.654 64-64V704.785c0-23.944-15.223-45.24-37.88-52.987l-125.96-43.076a80 80 0 0 1-33.722-22.342c-29.467-32.922-26.666-83.497 6.255-112.964C679.552 426.104 704 377.243 704 324c0-108.234-85.84-195-193-195z m0 539c19.882 0 36 16.118 36 36v88c0 19.882-16.118 36-36 36s-36-16.118-36-36v-88c0-19.882 16.118-36 36-36z" fill="#ffffff" p-id="6346"></path></svg>