<?xml version="1.0" standalone="no"?><!DOCTYPE svg PUBLIC "-//W3C//DTD SVG 1.1//EN" "http://www.w3.org/Graphics/SVG/1.1/DTD/svg11.dtd"><svg t="1600276633220" class="icon" viewBox="0 0 1024 1024" version="1.1" xmlns="http://www.w3.org/2000/svg" p-id="5291" xmlns:xlink="http://www.w3.org/1999/xlink" width="32" height="32"><defs><style type="text/css"></style></defs><path d="M512 65c247.424 0 448 200.576 448 448S759.424 961 512 961 64 760.424 64 513 264.576 65 512 65z m0 64c-212.077 0-384 171.923-384 384s171.923 384 384 384 384-171.923 384-384-171.923-384-384-384z m120 452c17.673 0 32 14.327 32 32 0 17.673-14.327 32-32 32H392c-17.673 0-32-14.327-32-32 0-17.673 14.327-32 32-32h240z m0-200c17.673 0 32 14.327 32 32 0 17.673-14.327 32-32 32H392c-17.673 0-32-14.327-32-32 0-17.673 14.327-32 32-32h240z" fill="#ffffff" p-id="5292"></path></svg>