<?xml version="1.0" standalone="no"?><!DOCTYPE svg PUBLIC "-//W3C//DTD SVG 1.1//EN" "http://www.w3.org/Graphics/SVG/1.1/DTD/svg11.dtd"><svg t="1600276608443" class="icon" viewBox="0 0 1024 1024" version="1.1" xmlns="http://www.w3.org/2000/svg" p-id="4406" xmlns:xlink="http://www.w3.org/1999/xlink" width="32" height="32"><defs><style type="text/css"></style></defs><path d="M511 64c247.424 0 448 200.576 448 448S758.424 960 511 960 63 759.424 63 512 263.576 64 511 64z m0 64c-212.077 0-384 171.923-384 384s171.923 384 384 384 384-171.923 384-384-171.923-384-384-384z m132 398c27.83 0 50.508 22.308 50.992 50.104l0.01 0.886-0.024 2.913-0.075 3.134C690.709 681.984 609.483 761 510 761c-100.488 0-182.348-80.62-183.975-180.968L326 577.13l0.007-0.973C326.457 548.379 349.115 526 377 526z m-23.004 64H399.98a8 8 0 0 0-7.88 9.382c0.143 0.817 0.28 1.535 0.408 2.155 11.2 53.932 58.595 94.534 115.53 95.447L510 697c57.251 0 105.235-40.132 117.156-93.897 0.225-1.016 0.465-2.26 0.721-3.732a8 8 0 0 0-7.881-9.371z" fill="#ffffff" p-id="4407"></path></svg>