<?xml version="1.0" standalone="no"?><!DOCTYPE svg PUBLIC "-//W3C//DTD SVG 1.1//EN" "http://www.w3.org/Graphics/SVG/1.1/DTD/svg11.dtd"><svg t="1600276646697" class="icon" viewBox="0 0 1024 1024" version="1.1" xmlns="http://www.w3.org/2000/svg" p-id="5822" xmlns:xlink="http://www.w3.org/1999/xlink" width="32" height="32"><defs><style type="text/css"></style></defs><path d="M512.948 66c115.945 0 210.151 93.087 212.024 208.622l0.028 3.508-0.001 55.87H783c70.692 0 128 57.308 128 128v368c0 70.692-57.308 128-128 128H239c-70.692 0-128-57.308-128-128V462c0-70.692 57.308-128 128-128h421.999l0.001-55.87C661 196.317 594.712 130 512.948 130c-74.864 0-137.62 55.896-146.878 129.365l-0.264 2.232c-1.945 17.565-17.762 30.229-35.328 28.284-17.565-1.945-30.229-17.762-28.284-35.328C314.031 147.656 404.614 66 512.948 66zM783 398H239c-35.346 0-64 28.654-64 64v368c0 35.346 28.654 64 64 64h544c35.346 0 64-28.654 64-64V462c0-35.346-28.654-64-64-64zM511 542c17.673 0 32 14.327 32 32v144c0 17.673-14.327 32-32 32-17.673 0-32-14.327-32-32V574c0-17.673 14.327-32 32-32z" fill="#ffffff" p-id="5823"></path></svg>