<?xml version="1.0" standalone="no"?><!DOCTYPE svg PUBLIC "-//W3C//DTD SVG 1.1//EN" "http://www.w3.org/Graphics/SVG/1.1/DTD/svg11.dtd"><svg t="1600276563471" class="icon" viewBox="0 0 1024 1024" version="1.1" xmlns="http://www.w3.org/2000/svg" p-id="2869" xmlns:xlink="http://www.w3.org/1999/xlink" width="32" height="32"><defs><style type="text/css"></style></defs><path d="M511 65c247.424 0 448 200.576 448 448S758.424 961 511 961 63 760.424 63 513 263.576 65 511 65z m0 64c-212.077 0-384 171.923-384 384s171.923 384 384 384 384-171.923 384-384-171.923-384-384-384z m0 530c26.51 0 48 21.49 48 48 0 26.245-21.063 47.57-47.206 47.994L511 755c-26.51 0-48-21.49-48-48 0-26.245 21.063-47.57 47.206-47.994L511 659z m0-388c19.882 0 36 16.118 36 36v276c0 19.683-15.797 35.677-35.405 35.995L511 619c-19.882 0-36-16.118-36-36V307c0-19.683 15.797-35.677 35.405-35.995L511 271z" fill="#ffffff" p-id="2870"></path></svg>