<?xml version="1.0" standalone="no"?><!DOCTYPE svg PUBLIC "-//W3C//DTD SVG 1.1//EN" "http://www.w3.org/Graphics/SVG/1.1/DTD/svg11.dtd"><svg t="1600276725562" class="icon" viewBox="0 0 1024 1024" version="1.1" xmlns="http://www.w3.org/2000/svg" p-id="7441" xmlns:xlink="http://www.w3.org/1999/xlink" width="32" height="32"><defs><style type="text/css"></style></defs><path d="M618 64.5H406c-48.03 0-89.743 32.072-102.542 77.635l-0.103 0.365H264c-70.416 0-127.5 57.084-127.5 127.5v562c0 70.416 57.084 127.5 127.5 127.5h496c70.416 0 127.5-57.084 127.5-127.5V270c0-70.416-57.084-127.5-127.5-127.5h-39.355l-0.103-0.365C707.743 96.572 666.03 64.5 618 64.5z m142 141c35.622 0 64.5 28.878 64.5 64.5v562.004l-0.009 1.062c-0.57 35.172-29.266 63.434-64.491 63.434H263.996l-1.062-0.009c-35.172-0.57-63.434-29.266-63.434-64.491V269.996l0.009-1.062c0.57-35.172 29.266-63.434 64.491-63.434l39.931 0.001 0.108 0.356C317.508 250.424 358.726 281.5 406 281.5h212c47.274 0 88.493-31.077 101.962-75.644l0.107-0.356H760z m-156 402H420c-17.397 0-31.5 14.103-31.5 31.5v2c0 17.397 14.103 31.5 31.5 31.5h184c17.397 0 31.5-14.103 31.5-31.5v-2c0-17.397-14.103-31.5-31.5-31.5z m0-186H420c-17.397 0-31.5 14.103-31.5 31.5v2c0 17.397 14.103 31.5 31.5 31.5h184c17.397 0 31.5-14.103 31.5-31.5v-2c0-17.397-14.103-31.5-31.5-31.5z m14-294c24.024 0 43.5 19.476 43.5 43.5v4.004l-0.006 0.715C661.11 199.44 641.756 218.5 618 218.5H405.996l-0.715-0.006C381.56 218.11 362.5 198.756 362.5 175v-4.004l0.006-0.715C362.89 146.56 382.244 127.5 406 127.5h212z" fill="#ffffff" p-id="7442"></path></svg>