<?xml version="1.0" standalone="no"?><!DOCTYPE svg PUBLIC "-//W3C//DTD SVG 1.1//EN" "http://www.w3.org/Graphics/SVG/1.1/DTD/svg11.dtd"><svg t="1600276623963" class="icon" viewBox="0 0 1024 1024" version="1.1" xmlns="http://www.w3.org/2000/svg" p-id="4937" xmlns:xlink="http://www.w3.org/1999/xlink" width="32" height="32"><defs><style type="text/css"></style></defs><path d="M575.484 98.867l262.419 151.201C877.56 272.918 902 315.206 902 360.976v302.048c0 45.77-24.439 88.057-64.097 110.908l-262.419 151.2c-39.598 22.817-88.356 22.79-127.929-0.07L185.974 773.955C146.385 751.087 122 708.838 122 663.12V360.881c0-45.72 24.385-87.968 63.974-110.836L447.555 98.938c39.573-22.86 88.331-22.887 127.93-0.07z m-94.968 55.55l-262.452 151.12A64 64 0 0 0 186 361v302a64 64 0 0 0 32.064 55.463l262.452 151.12a64 64 0 0 0 63.945-0.042l261.548-151.064A64 64 0 0 0 838 663.057V360.943a64 64 0 0 0-31.99-55.42L544.46 154.459a64 64 0 0 0-63.945-0.042zM512 378c72.902 0 132 59.098 132 132s-59.098 132-132 132-132-59.098-132-132 59.098-132 132-132z m0 64c-37.555 0-68 30.445-68 68s30.445 68 68 68 68-30.445 68-68-30.445-68-68-68z" fill="#ffffff" p-id="4938"></path></svg>