<?xml version="1.0" standalone="no"?><!DOCTYPE svg PUBLIC "-//W3C//DTD SVG 1.1//EN" "http://www.w3.org/Graphics/SVG/1.1/DTD/svg11.dtd"><svg t="1600276828548" class="icon" viewBox="0 0 1024 1024" version="1.1" xmlns="http://www.w3.org/2000/svg" p-id="11725" xmlns:xlink="http://www.w3.org/1999/xlink" width="32" height="32"><defs><style type="text/css"></style></defs><path d="M512 64c247.424 0 448 200.576 448 448S759.424 960 512 960 64 759.424 64 512 264.576 64 512 64z m0 64c-212.077 0-384 171.923-384 384s171.923 384 384 384 384-171.923 384-384-171.923-384-384-384z m134.241 480.967c7.64-15.669 26.466-22.366 42.315-14.954 16.009 7.487 22.918 26.534 15.43 42.543C669.342 710.64 595.029 759 511.987 759c-83.014 0-157.306-48.325-191.968-122.37-7.492-16.007-0.591-35.056 15.415-42.55 16.006-7.492 35.056-0.59 42.549 15.416l0.735 1.548C403.257 661.944 454.65 695 511.985 695c57.937 0 109.801-33.75 134.028-85.556zM358 377c25.405 0 46 20.595 46 46s-20.595 46-46 46-46-20.595-46-46 20.595-46 46-46z m308 0c25.405 0 46 20.595 46 46s-20.595 46-46 46-46-20.595-46-46 20.595-46 46-46z" fill="#ffffff" p-id="11726"></path></svg>