<?xml version="1.0" standalone="no"?><!DOCTYPE svg PUBLIC "-//W3C//DTD SVG 1.1//EN" "http://www.w3.org/Graphics/SVG/1.1/DTD/svg11.dtd"><svg t="1600276568457" class="icon" viewBox="0 0 1024 1024" version="1.1" xmlns="http://www.w3.org/2000/svg" p-id="3042" xmlns:xlink="http://www.w3.org/1999/xlink" width="32" height="32"><defs><style type="text/css"></style></defs><path d="M512 65c247.406 0 448 200.111 448 447 0 78.219-20.188 153.582-58.035 220.18-8.732 15.366-28.267 20.743-43.632 12.011a32.06 32.06 0 0 1-6.416-4.789 32.457 32.457 0 0 1-2.622-2.352L735.45 623.205c-12.496-12.496-12.496-32.758 0-45.255 12.497-12.496 32.759-12.496 45.255 0l84.533 84.532C885.403 615.466 896 564.524 896 512c0-211.508-171.905-383-384-383S128 300.492 128 512s171.905 383 384 383c66.906 0 131.25-17.06 188.222-49.08 15.406-8.66 34.915-3.19 43.574 12.216 8.66 15.407 3.19 34.916-12.217 43.575C665.093 939.08 589.96 959 512 959 264.594 959 64 758.889 64 512S264.594 65 512 65z" fill="#ffffff" p-id="3043"></path></svg>