<?xml version="1.0" standalone="no"?><!DOCTYPE svg PUBLIC "-//W3C//DTD SVG 1.1//EN" "http://www.w3.org/Graphics/SVG/1.1/DTD/svg11.dtd"><svg t="1600276615365" class="icon" viewBox="0 0 1024 1024" version="1.1" xmlns="http://www.w3.org/2000/svg" p-id="4583" xmlns:xlink="http://www.w3.org/1999/xlink" width="32" height="32"><defs><style type="text/css"></style></defs><path d="M509 66c117.084 0 212 94.916 212 212v57h63c70.692 0 128 57.308 128 128v368c0 70.692-57.308 128-128 128H240c-70.692 0-128-57.308-128-128V463c0-70.692 57.308-128 128-128h57v-57c0-117.084 94.916-212 212-212z m275 333H240c-35.346 0-64 28.654-64 64v368c0 35.346 28.654 64 64 64h544c35.346 0 64-28.654 64-64V463c0-35.346-28.654-64-64-64zM511 542c17.673 0 32 14.327 32 32v144c0 17.673-14.327 32-32 32-17.673 0-32-14.327-32-32V574c0-17.673 14.327-32 32-32z m-2-412c-81.738 0-148 66.262-148 148v57h296v-57c0-81.738-66.262-148-148-148z" fill="#ffffff" p-id="4584"></path></svg>