<?xml version="1.0" standalone="no"?><!DOCTYPE svg PUBLIC "-//W3C//DTD SVG 1.1//EN" "http://www.w3.org/Graphics/SVG/1.1/DTD/svg11.dtd"><svg t="1600276642772" class="icon" viewBox="0 0 1024 1024" version="1.1" xmlns="http://www.w3.org/2000/svg" p-id="5645" xmlns:xlink="http://www.w3.org/1999/xlink" width="32" height="32"><defs><style type="text/css"></style></defs><path d="M512 66c245.767 0 445 199.233 445 445S757.767 956 512 956c-66.834 0-131.575-14.772-190.506-42.731-2.33-1.106-5.43-2.633-9.302-4.582a16 16 0 0 0-12.382-0.844l-89.242 30.593c-32.335 11.085-67.534-6.142-78.62-38.477a61.893 61.893 0 0 1-2.722-28.823l14.663-102.655a16 16 0 0 0-2.54-11.157 384.089 384.089 0 0 1-2.42-3.657C92.324 682.172 67 598.461 67 511 67 265.233 266.233 66 512 66z m0 64c-210.42 0-381 170.58-381 381 0 77.83 23.362 152.061 66.26 214.78 0.577 0.844 1.666 2.383 3.265 4.616a48 48 0 0 1 8.492 34.734l-14.1 98.712a8 8 0 0 0 10.514 8.699l86.631-29.698a48 48 0 0 1 38.793 3.4c1.367 0.756 2.329 1.282 2.886 1.577C388.133 876.675 448.919 892 512 892c210.42 0 381-170.58 381-381S722.42 130 512 130z m-77 424c18.225 0 33 14.775 33 33s-14.775 33-33 33h-96c-18.225 0-33-14.775-33-33s14.775-33 33-33z m88-152c18.225 0 33 14.775 33 33s-14.775 33-33 33H339c-18.225 0-33-14.775-33-33s14.775-33 33-33z" fill="#ffffff" p-id="5646"></path></svg>