<?xml version="1.0" standalone="no"?><!DOCTYPE svg PUBLIC "-//W3C//DTD SVG 1.1//EN" "http://www.w3.org/Graphics/SVG/1.1/DTD/svg11.dtd"><svg t="1600276754619" class="icon" viewBox="0 0 1024 1024" version="1.1" xmlns="http://www.w3.org/2000/svg" p-id="8515" xmlns:xlink="http://www.w3.org/1999/xlink" width="32" height="32"><defs><style type="text/css"></style></defs><path d="M511.282 136c225.851 0 409.022 185.824 412.663 416.142l0.055 6.993-0.236 93.94c0.156 2.288 0.236 4.597 0.236 6.925v128c0 55.228-44.772 100-100 100s-100-44.772-100-100V660c0-55.228 44.772-100 100-100 12.684 0 24.817 2.362 35.982 6.669l0.018-7.615C860 360.565 703.679 200 511.282 200c-190.473 0-345.588 157.37-348.671 353.19l-0.047 5.945-0.02 7.333c11.02-4.18 22.97-6.468 35.456-6.468 55.228 0 100 44.772 100 100v128c0 55.228-44.772 100-100 100S98 843.228 98 788V660c0-2.753 0.111-5.48 0.33-8.178l0.234-92.768C98.564 325.597 283.149 136 511.282 136zM198 624c-18.249 0-33.326 13.578-35.68 31.182L162 781.685V788c0 19.683 15.797 35.677 35.405 35.995L198 824c19.882 0 36-16.118 36-36V660c0-19.882-16.118-36-36-36z m626 0c-19.882 0-36 16.118-36 36v128c0 19.882 16.118 36 36 36s36-16.118 36-36v-6.08l-0.564-0.001 0.32-126.13C857.671 637.89 842.457 624 824 624z" fill="#ffffff" p-id="8516"></path></svg>